<svg xmlns="http://www.w3.org/2000/svg" xmlns:xlink="http://www.w3.org/1999/xlink" width="34" height="34" viewBox="0 0 34 34">
    <defs>
        <path id="a" d="M18.33 28h-2.66c-.53 0-.97-.398-1.024-.925l-.271-1.635a8.69 8.69 0 0 1-1.486-.616l-1.369.978a1.028 1.028 0 0 1-1.36-.084l-1.879-1.88a1.025 1.025 0 0 1-.068-1.378l.962-1.349a8.792 8.792 0 0 1-.615-1.484l-1.658-.277A1.018 1.018 0 0 1 6 18.33v-2.66c0-.53.398-.97.925-1.024l1.635-.273a8.75 8.75 0 0 1 .615-1.484l-.977-1.369a1.015 1.015 0 0 1 .083-1.358l1.881-1.881a1.053 1.053 0 0 1 1.378-.07l1.349.964c.474-.25.973-.456 1.486-.616l.275-1.657c.05-.504.49-.902 1.02-.902h2.66c.53 0 .97.398 1.024.925l.273 1.634a8.82 8.82 0 0 1 1.484.616l1.369-.977c.163-.135.394-.217.631-.217.276 0 .533.106.727.3l1.881 1.881c.375.373.405.966.07 1.378l-.964 1.349c.25.474.456.97.615 1.484l1.658.277c.504.05.902.49.902 1.02v2.66c0 .532-.398.97-.927 1.022l-1.633.273a8.736 8.736 0 0 1-.615 1.486l.977 1.367c.322.392.292.985-.085 1.36l-1.88 1.879c-.36.362-.981.394-1.377.07l-1.349-.963c-.476.25-.973.458-1.484.616l-.277 1.658c-.05.504-.49.902-1.02.902zM17 20c-1.654 0-3-1.345-3-3 0-1.654 1.346-3 3-3s3 1.346 3 3c0 1.655-1.346 3-3 3z"/>
        <mask id="b" width="22" height="22" x="0" y="0" fill="#fff">
            <use xlink:href="#a"/>
        </mask>
    </defs>
    <use fill="none" fill-rule="evenodd" stroke="#A0A0B5" stroke-width="2" mask="url(#b)" xlink:href="#a"/>
</svg>
