<svg xmlns="http://www.w3.org/2000/svg" xmlns:xlink="http://www.w3.org/1999/xlink" width="34" height="34" viewBox="0 0 34 34">
    <defs>
        <path id="a" d="M27.19 19.81a.78.78 0 0 0-.22-.428c-.26-.26-.56-.314-.905-.163a6.75 6.75 0 0 1-2.866.641 6.684 6.684 0 0 1-3.433-.918 6.814 6.814 0 0 1-2.49-2.49 6.686 6.686 0 0 1-.918-3.432c0-.964.19-1.88.572-2.748a6.688 6.688 0 0 1 1.653-2.282c.277-.26.34-.563.19-.906-.144-.344-.4-.507-.768-.49a9.587 9.587 0 0 0-3.646.861 9.608 9.608 0 0 0-2.962 2.068 9.585 9.585 0 0 0-1.962 3.038 9.568 9.568 0 0 0-.723 3.677 9.39 9.39 0 0 0 .768 3.748 9.763 9.763 0 0 0 2.062 3.08 9.766 9.766 0 0 0 3.08 2.063 9.39 9.39 0 0 0 3.748.767 9.45 9.45 0 0 0 5.2-1.528 9.503 9.503 0 0 0 3.565-4.08.81.81 0 0 0 .056-.478z"/>
        <mask id="b" width="18.492" height="19.303" x="0" y="0" fill="#fff">
            <use xlink:href="#a"/>
        </mask>
    </defs>
    <use fill="none" fill-rule="evenodd" stroke="#A0A0B5" stroke-width="2" mask="url(#b)" xlink:href="#a"/>
</svg>
