<svg xmlns="http://www.w3.org/2000/svg" width="24" height="26" viewBox="0 0 24 26">
    <path fill="#24222E" fill-rule="evenodd" d="M18.843 9.973c-1.47 0-2.79.624-3.731 1.642-.398.432-1.09.943-1.838 1.392.352-1.368 1.461-3.09 2.232-3.846A5.363 5.363 0 0 0 17.1 5.315C17.1 2.398 14.822.03 12 0 9.178.031 6.9 2.398 6.9 5.315c0 1.515.607 2.877 1.594 3.846.77.756 1.88 2.478 2.232 3.846-.748-.45-1.44-.96-1.838-1.392a5.052 5.052 0 0 0-3.732-1.642C2.308 9.973 0 12.35 0 15.288c0 2.936 2.308 5.315 5.156 5.315 1.47 0 2.791-.644 3.732-1.662.418-.454 1.156-1.02 1.95-1.489-.075 3.75-1.832 6.504-3.62 7.59V26h9.563v-.958c-1.788-1.085-3.544-3.84-3.618-7.59.793.47 1.53 1.035 1.95 1.489.94 1.018 2.26 1.662 3.73 1.662 2.849 0 5.157-2.38 5.157-5.315 0-2.937-2.308-5.315-5.157-5.315z"/>
</svg>
