<svg xmlns="http://www.w3.org/2000/svg" xmlns:xlink="http://www.w3.org/1999/xlink" width="17" height="16" viewBox="0 0 17 16">
    <defs>
        <path id="a" d="M16.965 11c-.39 2.803-4.031 5-8.465 5S.425 13.803.035 11H0V6h.025c.334-3.356 4-6 8.475-6 4.474 0 8.141 2.644 8.475 6H17v5h-.035z"/>
        <mask id="d" width="17" height="16" x="0" y="0" fill="#fff">
            <use xlink:href="#a"/>
        </mask>
        <ellipse id="b" cx="8.5" cy="6.5" rx="8.5" ry="6.5"/>
        <mask id="e" width="17" height="13" x="0" y="0" fill="#fff">
            <use xlink:href="#b"/>
        </mask>
        <ellipse id="c" cx="8.5" cy="6.5" rx="4.5" ry="3.5"/>
        <mask id="f" width="9" height="7" x="0" y="0" fill="#fff">
            <use xlink:href="#c"/>
        </mask>
    </defs>
    <g fill="none" fill-rule="evenodd" stroke="#535168">
        <use fill="#25AAE1" stroke-width="2" mask="url(#d)" xlink:href="#a"/>
        <use fill="#FFF" fill-opacity=".3" stroke-width="2" mask="url(#e)" xlink:href="#b"/>
        <path d="M1 6.5h15M3 10l11-7M14 10L3 3M8.5 1v11"/>
        <use fill="#FFF" stroke-width="2" mask="url(#f)" xlink:href="#c"/>
    </g>
</svg>
